<svg xmlns="http://www.w3.org/2000/svg" width="641" height="644" viewBox="0 0 641 644" version="1.1"><path d="M 448 575 L 448 612 457 612 L 466 612 466 575 L 466 538 457 538 L 448 538 448 575 M 478 575 L 478 612 486.966 612 L 495.932 612 496.216 601.397 L 496.500 590.794 504 601.354 L 511.500 611.915 522.250 611.957 C 528.163 611.981, 533 611.743, 533 611.429 C 533 611.115, 528.030 604.988, 521.955 597.813 C 515.880 590.639, 511.043 584.384, 511.205 583.912 C 511.367 583.441, 516.337 577.230, 522.250 570.111 C 528.163 562.991, 533 556.904, 533 556.583 C 533 556.262, 528.163 556.029, 522.250 556.063 L 511.500 556.127 503.750 566.777 L 496 577.427 496 557.714 L 496 538 487 538 L 478 538 478 575 M 23.723 541.010 C 12.216 543.014, 5 550.911, 5 561.500 C 5 572.343, 10.472 577.925, 26 582.923 C 37.644 586.670, 41.159 590.056, 38.634 595.096 C 35.850 600.655, 24 598.832, 24 592.845 C 24 591.176, 23.056 591, 14.106 591 L 4.213 591 5.140 595.130 C 6.390 600.692, 7.221 602.064, 11.906 606.296 C 23.290 616.581, 46.415 614.667, 54.668 602.758 C 58.255 597.582, 59.027 588.269, 56.304 583.027 C 53.711 578.036, 47.271 573.588, 38.303 570.596 C 26.768 566.748, 24 564.804, 24 560.550 C 24 556.641, 25.999 555, 30.760 555 C 33.667 555, 38 558.479, 38 560.814 C 38 561.645, 40.842 562, 47.500 562 C 56.692 562, 56.999 561.927, 56.978 559.750 C 56.940 555.882, 53.414 549.487, 49.573 546.321 C 43.791 541.555, 33.149 539.368, 23.723 541.010 M 295.920 540.991 C 286.987 542.541, 279.562 548.129, 277.521 554.838 C 276.286 558.895, 276.820 566.819, 278.578 570.523 C 280.872 575.358, 286.792 579.194, 297.999 583.108 C 307.803 586.531, 311 588.698, 311 591.918 C 311 595.356, 309.879 596.885, 306.556 597.982 C 302.256 599.401, 298.441 597.938, 296.209 594.015 C 294.502 591.016, 294.490 591.013, 285.171 591.006 L 275.841 591 276.502 594.250 C 277.818 600.726, 282.166 606.265, 288.463 609.485 C 293.808 612.219, 295.252 612.500, 303.929 612.497 C 311.857 612.495, 314.203 612.119, 317.595 610.306 C 331.939 602.640, 334.203 584.689, 321.928 575.949 C 320.282 574.777, 314.384 572.171, 308.820 570.159 C 297.173 565.946, 293.796 562.938, 295.792 558.556 C 298.007 553.695, 305.946 553.983, 308.817 559.030 C 310.491 561.971, 310.550 561.987, 319.750 561.994 C 328.684 562, 328.999 561.923, 328.978 559.750 C 328.947 556.541, 325.680 549.883, 322.869 547.299 C 317.238 542.122, 305.388 539.348, 295.920 540.991 M 71 548.961 L 71 556 67.500 556 L 64 556 64 563.500 L 64 571 67.500 571 L 71 571 71 584.935 C 71 599.478, 71.684 602.949, 75.317 606.837 C 78.770 610.534, 83.541 612, 92.122 612 L 100 612 100 604.552 L 100 597.105 94.750 596.802 L 89.500 596.500 89.220 583.750 L 88.940 571 94.470 571 L 100 571 100 563.500 L 100 556 94.546 556 L 89.091 556 88.796 549.250 L 88.500 542.500 79.750 542.211 L 71 541.922 71 548.961 M 342.667 542.667 C 342.300 543.033, 342 546.183, 342 549.667 L 342 556 339 556 L 336 556 336 563.500 L 336 571 338.862 571 L 341.724 571 342.211 585.345 C 342.641 597.994, 342.975 600.182, 345.033 603.845 C 348.388 609.815, 353.421 612, 363.816 612 L 372 612 372 604.500 L 372 597 367.200 597 C 364.560 597, 361.860 596.460, 361.200 595.800 C 360.403 595.003, 360 590.656, 360 582.850 L 360 571.100 365.750 570.800 L 371.500 570.500 371.794 563.250 L 372.088 556 366.044 556 L 360 556 360 549 L 360 542 351.667 542 C 347.083 542, 343.033 542.300, 342.667 542.667 M 124.205 556.828 C 116.867 559.454, 112.022 563.681, 108.500 570.530 C 105.886 575.613, 105.503 577.403, 105.525 584.432 C 105.544 590.790, 106.039 593.504, 107.859 597.239 C 118.069 618.194, 150.899 618.214, 161.079 597.270 C 164.558 590.114, 164.427 577.426, 160.803 570.500 C 155.806 560.951, 148.041 556.096, 136.619 555.380 C 131.278 555.045, 128.178 555.407, 124.205 556.828 M 201.764 555.996 C 197.990 557.132, 192.213 560.811, 191.037 562.828 C 190.291 564.106, 190.054 563.498, 190.030 560.250 L 190 556 181 556 L 172 556 172 584 L 172 612 181 612 L 190 612 190 597.401 C 190 580.022, 191.036 576.640, 196.855 575.023 C 198.860 574.467, 202.188 574.009, 204.250 574.006 L 208 574 208 564.500 C 208 554.118, 208 554.118, 201.764 555.996 M 393.275 556.654 C 387.314 558.765, 380.445 566.662, 378.374 573.785 C 376.317 580.860, 376.914 591.783, 379.702 598.070 C 385.860 611.959, 402.879 617.404, 414.510 609.206 L 419 606.041 419 609.021 L 419 612 428 612 L 437 612 437 584 L 437 556 428 556 L 419 556 419 559.401 L 419 562.802 416.094 560.088 C 410.795 555.138, 401.505 553.740, 393.275 556.654 M 554.165 556.908 C 547.558 559.190, 540.666 565.707, 538.255 571.953 C 535.750 578.442, 535.943 591.050, 538.637 597.011 C 541.084 602.426, 545.746 607.286, 551.366 610.281 C 554.743 612.082, 557.148 612.487, 564.500 612.493 C 572.706 612.499, 573.985 612.228, 579 609.416 C 584.686 606.228, 591 598.583, 591 594.887 C 591 593.180, 590.157 593, 582.174 593 C 574.053 593, 573.161 593.200, 571 595.500 C 566.352 600.447, 556.428 597.901, 554.520 591.272 L 553.879 589.044 573.190 588.772 L 592.500 588.500 592.365 581.283 C 592.254 575.305, 591.725 573.160, 589.281 568.783 C 582.697 556.990, 568.162 552.074, 554.165 556.908 M 630.764 555.985 C 626.973 557.141, 621.209 560.819, 620.037 562.828 C 619.291 564.106, 619.054 563.498, 619.030 560.250 L 619 556 610 556 L 601 556 601 584 L 601 612 610 612 L 619 612 619 597.468 C 619 579.840, 619.946 576.664, 625.670 575.075 C 627.777 574.490, 631.204 574.009, 633.288 574.006 L 637.075 574 636.788 564.761 C 636.476 554.759, 636.182 554.331, 630.764 555.985 M 209 556.439 C 209 556.680, 213.950 568.592, 220 582.910 C 226.050 597.228, 231 609.398, 231 609.955 C 231 610.511, 228.300 616.984, 225 624.339 C 221.700 631.693, 219 638.001, 219 638.355 C 219 638.710, 223.195 639, 228.323 639 L 237.646 639 251.978 605.250 C 259.860 586.688, 267.798 568.013, 269.617 563.750 L 272.924 556 263.212 556.005 L 253.500 556.009 247.528 572.426 C 244.243 581.456, 241.293 588.681, 240.973 588.483 C 240.652 588.285, 237.736 580.895, 234.492 572.062 L 228.593 556 218.796 556 C 213.408 556, 209 556.197, 209 556.439 M 557.758 571.976 C 556.376 573.063, 555.008 574.863, 554.717 575.976 C 554.210 577.911, 554.639 578, 564.500 578 C 574.361 578, 574.790 577.911, 574.283 575.976 C 573.399 572.595, 569.151 570, 564.500 570 C 561.801 570, 559.360 570.715, 557.758 571.976 M 127.070 573.776 C 119.260 581.586, 124.234 597.400, 134.500 597.400 C 144.790 597.400, 149.799 581.645, 141.991 573.837 C 137.968 569.814, 131.061 569.785, 127.070 573.776 M 400.881 572.503 C 395.567 575.391, 393.527 584.093, 396.630 590.633 C 398.874 595.362, 401.611 597, 407.268 597 C 413.058 597, 416.193 594.427, 418.082 588.122 C 421.446 576.891, 410.724 567.154, 400.881 572.503" stroke="none" fill="#242424" fill-rule="evenodd"/><path d="M 204 7.990 C 185.521 9.846, 169.010 14.798, 152.198 23.527 C 113.290 43.729, 86.667 79.402, 77.783 123.237 L 75.500 134.500 75.500 253 L 75.500 371.500 77.783 382.763 C 89.594 441.040, 132.960 484.406, 191.237 496.217 L 202.500 498.500 321 498.500 L 439.500 498.500 450.763 496.217 C 502.517 485.728, 543.029 450.120, 559.506 400.639 C 566.801 378.731, 566.500 385.094, 566.500 253 L 566.500 134.500 564.217 123.237 C 552.453 65.190, 509.529 22.075, 451.300 9.818 L 440.500 7.545 326 7.391 C 263.025 7.306, 208.125 7.576, 204 7.990 M 198.500 56.459 C 163.435 63.004, 136.281 87.564, 125.259 122.703 L 122.500 131.500 122.500 253.500 C 122.500 370.062, 122.584 375.812, 124.393 382.500 C 129.039 399.683, 137.170 413.963, 149.103 425.897 C 165.129 441.922, 184.069 450.698, 207.556 452.982 C 220.663 454.256, 421.337 454.256, 434.444 452.982 C 475.432 448.996, 506.821 422.394, 517.607 382.500 C 519.416 375.812, 519.500 370.062, 519.500 253.500 L 519.500 131.500 516.745 122.718 C 506.499 90.056, 483.299 67.343, 450.470 57.834 L 442.500 55.526 324 55.339 C 230.068 55.192, 204.049 55.424, 198.500 56.459 M 442.492 93.797 C 425.167 99.788, 417.383 118.998, 425.531 135.654 C 433.511 151.964, 454.451 157.259, 469.720 146.828 C 478.063 141.128, 482.189 133.149, 482.297 122.500 C 482.509 101.646, 462.181 86.988, 442.492 93.797 M 309.009 127.069 C 279.038 130.025, 252.356 142.639, 230.940 163.976 C 215.887 178.973, 205.612 195.828, 199.226 216 C 194.835 229.867, 193.562 238.729, 193.623 255 C 193.754 290.110, 205.929 319.231, 230.871 344.095 C 249.769 362.933, 270 373.966, 296 379.613 C 307.904 382.199, 334.096 382.199, 346 379.613 C 372 373.966, 392.231 362.933, 411.129 344.095 C 436.223 319.080, 448.272 290.093, 448.372 254.500 C 448.417 238.125, 446.881 227.867, 442.351 214.290 C 431.759 182.544, 408.386 155.333, 379 140.534 C 357.071 129.490, 332.460 124.756, 309.009 127.069 M 317.379 172.754 C 316.762 173.164, 316.062 176.269, 315.822 179.652 C 315.333 186.556, 312.197 191.812, 306.948 194.527 C 304.032 196.035, 304 196.144, 304 204.625 C 304 215.731, 305.276 218.318, 315.750 228.438 C 320.340 232.872, 324.973 237.903, 326.047 239.618 C 330.031 245.979, 327.880 251.004, 319.736 254.359 C 314.138 256.665, 313.931 258.633, 318.860 262.727 C 324.637 267.526, 325.368 269.185, 323.583 273.455 C 322.717 275.527, 322.504 277.193, 323.060 277.537 C 323.577 277.857, 324 279.597, 324 281.404 C 324 285.016, 321.490 287.991, 318.421 288.015 C 314.303 288.048, 313.838 289.241, 314.486 298.099 C 315.195 307.795, 314.302 310.335, 309.121 313.361 C 306.272 315.025, 303.777 315.345, 293.079 315.416 C 282.627 315.485, 279.928 315.817, 277.645 317.313 C 276.092 318.331, 275.016 319.844, 275.193 320.761 C 275.654 323.158, 290.258 330.575, 299.500 333.107 C 305.402 334.724, 310.515 335.325, 319 335.399 L 330.500 335.500 330 329.500 C 328.772 314.759, 329.661 302.680, 333.387 283.500 C 337.925 260.141, 339.706 251.054, 341.088 244.222 C 342.297 238.249, 345.338 235.366, 349.366 236.377 C 353.541 237.425, 354.206 241.136, 352.513 253.936 C 350.512 269.062, 350.520 269.327, 352.934 268.035 C 358.001 265.323, 363 268.153, 363 273.734 C 363 276.730, 363.101 276.796, 366.884 276.289 C 371.623 275.653, 375 278.410, 375 282.913 C 375 285.753, 375.078 285.797, 378.086 284.663 C 380.918 283.595, 381.369 283.730, 383.586 286.306 C 386.236 289.385, 386.509 292.044, 384.995 300.025 C 384.443 302.939, 384.149 305.483, 384.344 305.677 C 384.859 306.193, 391.372 296.173, 394.384 290.230 C 395.809 287.417, 398.168 281.152, 399.625 276.307 C 403.211 264.384, 403.438 245.668, 400.144 233.558 C 390.897 199.566, 361.776 175.639, 326 172.638 C 321.875 172.292, 317.996 172.344, 317.379 172.754" stroke="none" fill="#dc24cc" fill-rule="evenodd"/></svg>